<svg width="20" height="20" viewBox="0 0 20 20" fill="none" xmlns="http://www.w3.org/2000/svg">
<path d="M4.1665 8.49999V4.83332C4.1665 4.65651 4.23674 4.48694 4.36177 4.36192C4.48679 4.23689 4.65636 4.16666 4.83317 4.16666H8.49984C8.67665 4.16666 8.84622 4.23689 8.97124 4.36192C9.09627 4.48694 9.1665 4.65651 9.1665 4.83332V8.49999C9.1665 8.6768 9.09627 8.84637 8.97124 8.97139C8.84622 9.09642 8.67665 9.16666 8.49984 9.16666H4.83317C4.65636 9.16666 4.48679 9.09642 4.36177 8.97139C4.23674 8.84637 4.1665 8.6768 4.1665 8.49999ZM10.8332 8.49999V4.83332C10.8332 4.65651 10.9034 4.48694 11.0284 4.36192C11.1535 4.23689 11.323 4.16666 11.4998 4.16666H15.1665C15.3433 4.16666 15.5129 4.23689 15.6379 4.36192C15.7629 4.48694 15.8332 4.65651 15.8332 4.83332V8.49999C15.8332 8.6768 15.7629 8.84637 15.6379 8.97139C15.5129 9.09642 15.3433 9.16666 15.1665 9.16666H11.4998C11.323 9.16666 11.1535 9.09642 11.0284 8.97139C10.9034 8.84637 10.8332 8.6768 10.8332 8.49999ZM10.8332 15.1667V11.5C10.8332 11.3232 10.9034 11.1536 11.0284 11.0286C11.1535 10.9036 11.323 10.8333 11.4998 10.8333H15.1665C15.3433 10.8333 15.5129 10.9036 15.6379 11.0286C15.7629 11.1536 15.8332 11.3232 15.8332 11.5V15.1667C15.8332 15.3435 15.7629 15.513 15.6379 15.6381C15.5129 15.7631 15.3433 15.8333 15.1665 15.8333H11.4998C11.323 15.8333 11.1535 15.7631 11.0284 15.6381C10.9034 15.513 10.8332 15.3435 10.8332 15.1667ZM4.1665 15.1667V11.5C4.1665 11.3232 4.23674 11.1536 4.36177 11.0286C4.48679 10.9036 4.65636 10.8333 4.83317 10.8333H8.49984C8.67665 10.8333 8.84622 10.9036 8.97124 11.0286C9.09627 11.1536 9.1665 11.3232 9.1665 11.5V15.1667C9.1665 15.3435 9.09627 15.513 8.97124 15.6381C8.84622 15.7631 8.67665 15.8333 8.49984 15.8333H4.83317C4.65636 15.8333 4.48679 15.7631 4.36177 15.6381C4.23674 15.513 4.1665 15.3435 4.1665 15.1667Z" fill="#9EA3A9"/>
</svg>
