<svg width="20" height="20" viewBox="0 0 20 20" fill="none" xmlns="http://www.w3.org/2000/svg">
<path d="M6.14567 13.3725H13.854M17.7082 8.23583V14.6508C17.7082 15.3322 17.4375 15.9857 16.9557 16.4675C16.4739 16.9493 15.8204 17.22 15.139 17.22H4.86067C4.17929 17.22 3.52581 16.9493 3.044 16.4675C2.56218 15.9857 2.2915 15.3322 2.2915 14.6508V5.34917C2.2915 4.66778 2.56218 4.0143 3.044 3.53249C3.52581 3.05068 4.17929 2.78 4.86067 2.78H7.43067C7.85462 2.77972 8.27204 2.88436 8.64573 3.08458C9.01941 3.2848 9.33775 3.57438 9.57234 3.9275L10.2998 5.0325C10.4332 5.2301 10.6131 5.39195 10.8236 5.50382C11.0341 5.6157 11.2689 5.67419 11.5073 5.67417H15.139C15.819 5.67438 16.4712 5.9441 16.9528 6.42425C17.4343 6.90439 17.706 7.55582 17.7082 8.23583Z" stroke="#5C646D" stroke-width="1.5" stroke-linecap="round" stroke-linejoin="round"/>
</svg>
