<svg width="18" height="18" viewBox="0 0 18 18" fill="none" xmlns="http://www.w3.org/2000/svg">
<path d="M7.33329 3.16667H10.6666C10.6666 2.72464 10.491 2.30072 10.1785 1.98816C9.86591 1.67559 9.44199 1.5 8.99996 1.5C8.55793 1.5 8.13401 1.67559 7.82145 1.98816C7.50889 2.30072 7.33329 2.72464 7.33329 3.16667ZM6.08329 3.16667C6.08329 2.78364 6.15873 2.40437 6.30531 2.05051C6.45189 1.69664 6.66673 1.37511 6.93756 1.10427C7.2084 0.833434 7.52993 0.618594 7.8838 0.472018C8.23767 0.325442 8.61694 0.25 8.99996 0.25C9.38298 0.25 9.76225 0.325442 10.1161 0.472018C10.47 0.618594 10.7915 0.833434 11.0624 1.10427C11.3332 1.37511 11.548 1.69664 11.6946 2.05051C11.8412 2.40437 11.9166 2.78364 11.9166 3.16667H16.7083C16.8741 3.16667 17.033 3.23251 17.1502 3.34973C17.2674 3.46694 17.3333 3.62591 17.3333 3.79167C17.3333 3.95743 17.2674 4.1164 17.1502 4.23361C17.033 4.35082 16.8741 4.41667 16.7083 4.41667H15.6083L14.6333 14.5092C14.5585 15.2825 14.1983 16.0002 13.623 16.5224C13.0477 17.0445 12.2985 17.3336 11.5216 17.3333H6.47829C5.70151 17.3334 4.95254 17.0442 4.37742 16.5221C3.80229 15.9999 3.44224 15.2823 3.36746 14.5092L2.39163 4.41667H1.29163C1.12587 4.41667 0.966894 4.35082 0.849684 4.23361C0.732474 4.1164 0.666626 3.95743 0.666626 3.79167C0.666626 3.62591 0.732474 3.46694 0.849684 3.34973C0.966894 3.23251 1.12587 3.16667 1.29163 3.16667H6.08329ZM7.74996 7.125C7.74996 6.95924 7.68411 6.80027 7.5669 6.68306C7.44969 6.56585 7.29072 6.5 7.12496 6.5C6.9592 6.5 6.80023 6.56585 6.68302 6.68306C6.56581 6.80027 6.49996 6.95924 6.49996 7.125V13.375C6.49996 13.5408 6.56581 13.6997 6.68302 13.8169C6.80023 13.9342 6.9592 14 7.12496 14C7.29072 14 7.44969 13.9342 7.5669 13.8169C7.68411 13.6997 7.74996 13.5408 7.74996 13.375V7.125ZM10.875 6.5C11.0407 6.5 11.1997 6.56585 11.3169 6.68306C11.4341 6.80027 11.5 6.95924 11.5 7.125V13.375C11.5 13.5408 11.4341 13.6997 11.3169 13.8169C11.1997 13.9342 11.0407 14 10.875 14C10.7092 14 10.5502 13.9342 10.433 13.8169C10.3158 13.6997 10.25 13.5408 10.25 13.375V7.125C10.25 6.95924 10.3158 6.80027 10.433 6.68306C10.5502 6.56585 10.7092 6.5 10.875 6.5ZM4.61163 14.3892C4.65657 14.853 4.87266 15.2835 5.21777 15.5968C5.56287 15.91 6.01225 16.0834 6.47829 16.0833H11.5216C11.9877 16.0834 12.437 15.91 12.7822 15.5968C13.1273 15.2835 13.3433 14.853 13.3883 14.3892L14.3533 4.41667H3.64663L4.61163 14.3892Z" fill="#E8212E"/>
</svg>
