<svg width="75" height="24" viewBox="0 0 75 24" fill="none" xmlns="http://www.w3.org/2000/svg">
<path d="M2.457 8.661V11.313H5.577V12.522H2.457V15.291H5.967V16.5H0.975V7.452H5.967V8.661H2.457ZM11.4064 9.22C11.9697 9.22 12.4724 9.337 12.9144 9.571C13.365 9.805 13.716 10.1517 13.9674 10.611C14.2187 11.0703 14.3444 11.625 14.3444 12.275V16.5H12.8754V12.496C12.8754 11.8547 12.715 11.365 12.3944 11.027C12.0737 10.6803 11.636 10.507 11.0814 10.507C10.5267 10.507 10.0847 10.6803 9.75538 11.027C9.43472 11.365 9.27438 11.8547 9.27438 12.496V16.5H7.79238V9.337H9.27438V10.156C9.51705 9.86133 9.82472 9.63167 10.1974 9.467C10.5787 9.30233 10.9817 9.22 11.4064 9.22ZM19.1208 9.22C19.6754 9.22 20.1651 9.33267 20.5898 9.558C21.0231 9.77467 21.3611 10.0477 21.6038 10.377V9.337H23.0988V16.617C23.0988 17.2757 22.9601 17.8607 22.6828 18.372C22.4054 18.892 22.0024 19.2993 21.4738 19.594C20.9538 19.8887 20.3298 20.036 19.6018 20.036C18.6311 20.036 17.8251 19.8063 17.1838 19.347C16.5424 18.8963 16.1784 18.281 16.0918 17.501H17.5608C17.6734 17.8737 17.9118 18.1727 18.2758 18.398C18.6484 18.632 19.0904 18.749 19.6018 18.749C20.1998 18.749 20.6808 18.567 21.0448 18.203C21.4174 17.839 21.6038 17.3103 21.6038 16.617V15.421C21.3524 15.759 21.0101 16.045 20.5768 16.279C20.1521 16.5043 19.6668 16.617 19.1208 16.617C18.4968 16.617 17.9248 16.461 17.4048 16.149C16.8934 15.8283 16.4861 15.3863 16.1828 14.823C15.8881 14.251 15.7408 13.6053 15.7408 12.886C15.7408 12.1667 15.8881 11.5297 16.1828 10.975C16.4861 10.4203 16.8934 9.99133 17.4048 9.688C17.9248 9.376 18.4968 9.22 19.1208 9.22ZM21.6038 12.912C21.6038 12.418 21.4998 11.989 21.2918 11.625C21.0924 11.261 20.8281 10.9837 20.4988 10.793C20.1694 10.6023 19.8141 10.507 19.4328 10.507C19.0514 10.507 18.6961 10.6023 18.3668 10.793C18.0374 10.975 17.7688 11.248 17.5608 11.612C17.3614 11.9673 17.2618 12.392 17.2618 12.886C17.2618 13.38 17.3614 13.8133 17.5608 14.186C17.7688 14.5587 18.0374 14.8447 18.3668 15.044C18.7048 15.2347 19.0601 15.33 19.4328 15.33C19.8141 15.33 20.1694 15.2347 20.4988 15.044C20.8281 14.8533 21.0924 14.576 21.2918 14.212C21.4998 13.8393 21.6038 13.406 21.6038 12.912ZM26.5273 6.88V16.5H25.0453V6.88H26.5273ZM29.227 8.388C28.9584 8.388 28.733 8.297 28.551 8.115C28.369 7.933 28.278 7.70767 28.278 7.439C28.278 7.17033 28.369 6.945 28.551 6.763C28.733 6.581 28.9584 6.49 29.227 6.49C29.487 6.49 29.708 6.581 29.89 6.763C30.072 6.945 30.163 7.17033 30.163 7.439C30.163 7.70767 30.072 7.933 29.89 8.115C29.708 8.297 29.487 8.388 29.227 8.388ZM29.955 9.337V16.5H28.473V9.337H29.955ZM34.5008 16.617C33.9374 16.617 33.4304 16.5173 32.9798 16.318C32.5378 16.11 32.1868 15.8327 31.9268 15.486C31.6668 15.1307 31.5281 14.7363 31.5108 14.303H33.0448C33.0708 14.6063 33.2138 14.862 33.4738 15.07C33.7424 15.2693 34.0761 15.369 34.4748 15.369C34.8908 15.369 35.2114 15.291 35.4368 15.135C35.6708 14.9703 35.7878 14.7623 35.7878 14.511C35.7878 14.2423 35.6578 14.043 35.3978 13.913C35.1464 13.783 34.7434 13.64 34.1888 13.484C33.6514 13.3367 33.2138 13.1937 32.8758 13.055C32.5378 12.9163 32.2431 12.704 31.9918 12.418C31.7491 12.132 31.6278 11.755 31.6278 11.287C31.6278 10.9057 31.7404 10.559 31.9658 10.247C32.1911 9.92633 32.5118 9.675 32.9278 9.493C33.3524 9.311 33.8378 9.22 34.3838 9.22C35.1984 9.22 35.8528 9.428 36.3468 9.844C36.8494 10.2513 37.1181 10.8103 37.1528 11.521H35.6708C35.6448 11.2003 35.5148 10.9447 35.2808 10.754C35.0468 10.5633 34.7304 10.468 34.3318 10.468C33.9418 10.468 33.6428 10.5417 33.4348 10.689C33.2268 10.8363 33.1228 11.0313 33.1228 11.274C33.1228 11.4647 33.1921 11.625 33.3308 11.755C33.4694 11.885 33.6384 11.989 33.8378 12.067C34.0371 12.1363 34.3318 12.2273 34.7218 12.34C35.2418 12.4787 35.6664 12.6217 35.9958 12.769C36.3338 12.9077 36.6241 13.1157 36.8668 13.393C37.1094 13.6703 37.2351 14.0387 37.2438 14.498C37.2438 14.9053 37.1311 15.2693 36.9058 15.59C36.6804 15.9107 36.3598 16.162 35.9438 16.344C35.5364 16.526 35.0554 16.617 34.5008 16.617ZM42.5501 9.22C43.0961 9.22 43.5815 9.337 44.0061 9.571C44.4395 9.805 44.7775 10.1517 45.0201 10.611C45.2715 11.0703 45.3971 11.625 45.3971 12.275V16.5H43.9281V12.496C43.9281 11.8547 43.7678 11.365 43.4471 11.027C43.1265 10.6803 42.6888 10.507 42.1341 10.507C41.5795 10.507 41.1375 10.6803 40.8081 11.027C40.4875 11.365 40.3271 11.8547 40.3271 12.496V16.5H38.8451V6.88H40.3271V10.169C40.5785 9.86567 40.8948 9.63167 41.2761 9.467C41.6661 9.30233 42.0908 9.22 42.5501 9.22Z" fill="#212B36"/>
<path d="M53 12C53 17.523 57.477 22 63 22C68.523 22 73 17.523 73 12C73 6.477 68.523 2 63 2C57.477 2 53 6.477 53 12Z" stroke="#212B36" stroke-width="1.25" stroke-linecap="round" stroke-linejoin="round"/>
<path d="M64.0009 2.05078C64.0009 2.05078 67.0009 6.00078 67.0009 12.0008C67.0009 18.0008 64.0009 21.9508 64.0009 21.9508M62.0009 21.9508C62.0009 21.9508 59.0009 18.0008 59.0009 12.0008C59.0009 6.00078 62.0009 2.05078 62.0009 2.05078M53.6309 15.5008H72.3709M53.6309 8.50078H72.3709" stroke="#212B36" stroke-width="1.25" stroke-linecap="round" stroke-linejoin="round"/>
</svg>
