<svg width="20" height="20" viewBox="0 0 20 20" fill="none" xmlns="http://www.w3.org/2000/svg">
<path d="M8.28335 13.8372L8.348 13.8333H11.6658C11.7508 13.8334 11.8325 13.866 11.8943 13.9243C11.9561 13.9826 11.9933 14.0623 11.9982 14.1471C12.0032 14.2319 11.9756 14.3155 11.9211 14.3806L12.3045 14.7015L11.9211 14.3806C11.869 14.4429 11.7961 14.4838 11.7161 14.4961L11.6515 14.5H8.33362C8.24866 14.4999 8.16694 14.4674 8.10516 14.4091C8.04338 14.3507 8.0062 14.271 8.00122 14.1862C7.99625 14.1014 8.02384 14.0179 8.07837 13.9527L7.70689 13.6418L8.07837 13.9527C8.13046 13.8905 8.20338 13.8495 8.28335 13.8372ZM6.68133 9.66667L13.3325 9.66667C13.3326 9.66667 13.3327 9.66667 13.3328 9.66667C13.4177 9.66684 13.4993 9.69936 13.561 9.75762C13.6227 9.81594 13.6599 9.89565 13.6649 9.98046C13.6699 10.0653 13.6423 10.1488 13.5878 10.2139C13.5357 10.2762 13.4627 10.3172 13.3828 10.3295L13.3181 10.3333L6.66695 10.3333C6.66685 10.3333 6.66675 10.3333 6.66664 10.3333C6.58179 10.3332 6.5002 10.3006 6.43849 10.2424C6.37671 10.1841 6.33954 10.1044 6.33456 10.0195C6.32958 9.93472 6.35717 9.85121 6.4117 9.78606C6.4638 9.72381 6.53672 9.68282 6.61669 9.67053L6.68133 9.66667ZM4.18134 5.5H15.8327C15.9176 5.50015 15.9992 5.53267 16.061 5.59095C16.1227 5.64927 16.1599 5.72898 16.1649 5.8138C16.1699 5.89861 16.1423 5.98213 16.0878 6.04728C16.0357 6.10952 15.9627 6.15051 15.8828 6.1628L15.8181 6.16667H4.16671C4.08183 6.16651 4.00021 6.13398 3.93849 6.07572C3.87671 6.0174 3.83954 5.93768 3.83456 5.85287C3.82958 5.76805 3.85717 5.68454 3.9117 5.61939C3.9638 5.55715 4.03672 5.51615 4.11669 5.50387L4.18134 5.5Z" fill="#1F1F1F" stroke="#212B36"/>
</svg>
