<svg width="20" height="20" viewBox="0 0 20 20" fill="none" xmlns="http://www.w3.org/2000/svg">
<path d="M5.83333 7.50041V5.83374H17.5V7.50041H5.83333ZM5.83333 10.8337V9.16707H17.5V10.8337H5.83333ZM5.83333 14.1671V12.5004H17.5V14.1671H5.83333ZM3.33333 7.50041C3.09722 7.50041 2.89944 7.42041 2.74 7.26041C2.58056 7.10041 2.50056 6.90263 2.5 6.66707C2.5 6.43096 2.58 6.23318 2.74 6.07374C2.9 5.9143 3.09778 5.8343 3.33333 5.83374C3.56944 5.83374 3.7675 5.91374 3.9275 6.07374C4.0875 6.23374 4.16722 6.43152 4.16667 6.66707C4.16667 6.90318 4.08667 7.10124 3.92667 7.26124C3.76667 7.42124 3.56889 7.50096 3.33333 7.50041ZM3.33333 10.8337C3.09722 10.8337 2.89944 10.7537 2.74 10.5937C2.58056 10.4337 2.50056 10.236 2.5 10.0004C2.5 9.7643 2.58 9.56652 2.74 9.40707C2.9 9.24763 3.09778 9.16763 3.33333 9.16707C3.56944 9.16707 3.7675 9.24707 3.9275 9.40707C4.0875 9.56707 4.16722 9.76485 4.16667 10.0004C4.16667 10.2365 4.08667 10.4346 3.92667 10.5946C3.76667 10.7546 3.56889 10.8343 3.33333 10.8337ZM3.33333 14.1671C3.09722 14.1671 2.89944 14.0871 2.74 13.9271C2.58056 13.7671 2.50056 13.5693 2.5 13.3337C2.5 13.0976 2.58 12.8999 2.74 12.7404C2.9 12.581 3.09778 12.501 3.33333 12.5004C3.56944 12.5004 3.7675 12.5804 3.9275 12.7404C4.0875 12.9004 4.16722 13.0982 4.16667 13.3337C4.16667 13.5699 4.08667 13.7679 3.92667 13.9279C3.76667 14.0879 3.56889 14.1676 3.33333 14.1671Z" fill="#212B36"/>
</svg>
