<svg width="45" height="46" viewBox="0 0 45 46" fill="none" xmlns="http://www.w3.org/2000/svg">
<rect y="0.5" width="45" height="45" rx="22.5" fill="#FAFAFA"/>
<g clip-path="url(#clip0_21_355)">
<path d="M45.1121 22.9429C45.1121 35.3398 35.0134 45.3857 22.5549 45.3857C10.0964 45.3857 0 35.3398 0 22.9429C0 10.5481 10.0964 0.5 22.5549 0.5C35.0134 0.5 45.1121 10.5481 45.1121 22.9429Z" fill="#EE3424"/>
<path d="M7.79883 29.7018C8.18774 27.8561 8.58984 23.7648 9.1062 18.8517L10.8574 18.8473L10.9805 18.0782L9.20288 18.0826C9.36328 16.5621 9.65991 13.2816 11.0881 12.6905C11.4749 13.3585 11.844 13.8727 12.6658 13.8881C13.1953 13.9012 13.6655 13.6639 13.6743 13.0882C13.6919 12.2731 12.4329 11.9413 11.7891 11.9303C10.5916 11.9105 7.19238 12.3544 6.35522 16.9093L6.1377 18.0826L4.75781 18.0892L4.63257 18.8627L6.02344 18.8671C5.62134 22.4332 4.82812 29.649 4.61279 30.6378C4.13379 32.8087 3.9668 33.3295 2.87695 33.9205C3.00879 34.1512 3.14282 34.3798 3.28345 34.6083C5.14453 34.0414 7.24072 32.3495 7.79883 29.7018Z" fill="white"/>
<path d="M17.5312 21.843C17.5312 20.9312 17.4675 18.7712 16.1272 18.7712C14.1453 18.7712 13.8684 22.5615 13.8684 23.9392C13.8684 24.8269 13.9321 26.989 15.2725 26.989C17.2522 26.989 17.5312 23.1987 17.5312 21.843ZM10.7812 24.4885C10.7812 20.9927 13.0796 17.9648 16.8918 17.9648C19.2363 17.9648 20.6184 19.002 20.6184 21.2673C20.6184 24.7654 18.3201 27.7976 14.5078 27.7976C12.1633 27.7976 10.7812 26.7583 10.7812 24.4885Z" fill="white"/>
<path d="M28.1777 21.843C28.1777 20.9312 28.1162 18.7712 26.7759 18.7712C24.7961 18.7712 24.5171 22.5615 24.5171 23.9392C24.5171 24.8269 24.5808 26.989 25.9211 26.989C27.9031 26.989 28.1777 23.1987 28.1777 21.843ZM21.4277 24.4885C21.4277 20.9927 23.7261 17.9648 27.5405 17.9648C29.8872 17.9648 31.2671 19.002 31.2671 21.2673C31.2671 24.7654 28.9709 27.7976 25.1565 27.7976C22.8142 27.7976 21.4277 26.7583 21.4277 24.4885Z" fill="white"/>
<path d="M37.9763 23.4719C38.4839 22.1602 38.6597 20.9517 38.9365 18.9807C38.8289 18.939 38.7014 18.9192 38.5959 18.9192C36.2515 18.9192 35.144 22.3074 35.144 24.1948C35.144 24.6584 35.2495 25.7834 35.9307 25.7834C36.8689 25.7834 37.6973 24.1948 37.9763 23.4719ZM42.8521 26.6272C41.5117 27.2666 39.8748 27.7961 38.7454 27.7961C38.1697 27.7961 38.1895 26.8865 38.1895 26.502C38.1895 26.0559 38.2334 25.4429 38.3389 24.2585L38.2949 24.2146C37.5303 25.7417 36.0383 27.7961 34.1201 27.7961C32.5908 27.7961 31.9492 26.2075 31.9492 24.8914C31.9492 21.5647 34.5903 18.1106 38.2751 18.1106H39.042C39.343 15.8035 39.3606 14.8279 39.3606 14.1292C39.3606 13.8962 39.3606 13.6853 39.1035 13.6853C38.9102 13.6853 38.6179 13.7446 37.8665 13.9797L37.6797 13.3645C39.1892 12.835 40.835 12.4988 42.2983 12.457C42.4895 12.457 42.5554 12.457 42.5554 12.7734C42.5554 14.7224 41.0833 24.7859 41.0833 25.801C41.0833 26.0779 41.0833 26.4382 41.3623 26.4382C41.5095 26.4382 42.0039 26.269 42.6609 26.0383L42.8521 26.6272Z" fill="white"/>
<path d="M13.9746 33.0142V30.2983H14.5745V30.5928C14.814 30.4236 15.0908 30.25 15.4116 30.25C15.9543 30.25 16.218 30.606 16.218 31.1575V33.0142H15.5676V31.252C15.5676 30.8828 15.4512 30.7708 15.2336 30.7708C14.9524 30.7708 14.7349 30.9312 14.625 31.0564V33.0142H13.9746Z" fill="white"/>
<path d="M19.0049 31.3224C18.9961 30.9466 18.7939 30.7291 18.4797 30.7291C18.1677 30.7291 17.9678 30.9466 17.9546 31.3224H19.0049ZM17.9546 31.7618C17.9678 32.3243 18.2183 32.5462 18.5237 32.5462C18.8269 32.5462 18.9675 32.4056 19.1301 32.221L19.6025 32.5111C19.3542 32.8978 18.9851 33.0626 18.46 33.0626C17.7524 33.0626 17.3086 32.5177 17.3086 31.6585C17.3086 30.7972 17.7524 30.2501 18.4929 30.2501C19.207 30.2413 19.6025 30.8434 19.6025 31.4959V31.7618H17.9546Z" fill="white"/>
<path d="M20.8699 30.2983V29.4062H21.5203V30.2983H22.0564V30.8213H21.5203V32.3594C21.5203 32.5022 21.5972 32.5461 21.7576 32.5461C21.8542 32.5461 21.9597 32.5132 22.0564 32.489V33.0273C21.8762 33.0449 21.718 33.0647 21.54 33.0647C21.0588 33.0647 20.8699 32.8274 20.8699 32.4363V30.8213H20.4941V30.2983H20.8699Z" fill="white"/>
<path d="M24.5537 31.3208H24.5427L24.145 33.0127H23.5583L22.8574 30.2969H23.4749L23.8462 31.9888H23.855L24.2483 30.2969H24.8481L25.2305 31.9888H25.2393L25.6326 30.2969H26.2478L25.5447 33.0127H24.9536L24.5537 31.3208Z" fill="white"/>
<path d="M28.2368 30.7708C27.8765 30.7708 27.7051 31.052 27.7051 31.6563C27.7051 32.2583 27.8765 32.5461 28.2368 32.5461C28.5994 32.5461 28.7729 32.2583 28.7729 31.6563C28.7729 31.052 28.5994 30.7708 28.2368 30.7708ZM28.2368 30.25C28.9795 30.25 29.4233 30.7993 29.4233 31.6563C29.4233 32.5198 28.9795 33.0625 28.2368 33.0625C27.4985 33.0625 27.0547 32.5198 27.0547 31.6563C27.0547 30.7993 27.4985 30.25 28.2368 30.25Z" fill="white"/>
<path d="M30.4727 33.0142V30.2983H31.0681V30.7664H31.0791C31.2351 30.4412 31.4548 30.2588 31.8481 30.25V30.9312C31.813 30.929 31.7734 30.929 31.7295 30.929C31.4065 30.929 31.123 31.3003 31.123 31.364V33.0142H30.4727Z" fill="white"/>
<path d="M33.5371 33.0122H32.8867V29.2461H33.5371V31.3445H33.5569L34.3611 30.2964H35.106L34.2996 31.3115L35.1609 33.0122H34.4688L33.8667 31.7971L33.5371 32.175V33.0122Z" fill="white"/>
</g>
<defs>
<clipPath id="clip0_21_355">
<rect width="45" height="45" fill="white" transform="translate(0 0.5)"/>
</clipPath>
</defs>
</svg>
