<svg width="20" height="20" viewBox="0 0 20 20" fill="none" xmlns="http://www.w3.org/2000/svg">
<path d="M14.9999 6.59168C14.9749 6.59168 14.9583 6.59168 14.9333 6.59168H14.8916C13.3166 6.54168 12.1416 5.32501 12.1416 3.82501C12.1416 2.29167 13.3916 1.05001 14.9166 1.05001C16.4416 1.05001 17.6916 2.30001 17.6916 3.82501C17.6833 5.33334 16.5083 6.55001 15.0083 6.60001C15.0083 6.59168 15.0083 6.59168 14.9999 6.59168ZM14.9166 2.29168C14.0749 2.29168 13.3916 2.97501 13.3916 3.81668C13.3916 4.64168 14.0333 5.30835 14.8583 5.34168C14.8666 5.33335 14.9333 5.33335 15.0083 5.34168C15.8166 5.30001 16.4416 4.63335 16.4499 3.81668C16.4499 2.97501 15.7666 2.29168 14.9166 2.29168Z" fill="#5C646D"/>
<path d="M15.0083 12.7334C14.6833 12.7334 14.3583 12.7084 14.0333 12.65C13.6916 12.5917 13.4666 12.2667 13.5249 11.925C13.5833 11.5834 13.9083 11.3584 14.2499 11.4167C15.2749 11.5917 16.3583 11.4 17.0833 10.9167C17.4749 10.6584 17.6833 10.3334 17.6833 10.0084C17.6833 9.68335 17.4666 9.36669 17.0833 9.10835C16.3583 8.62502 15.2583 8.43335 14.2249 8.61669C13.8833 8.68335 13.5583 8.45002 13.4999 8.10835C13.4416 7.76669 13.6666 7.44169 14.0083 7.38336C15.3666 7.14169 16.7749 7.40002 17.7749 8.06669C18.5083 8.55835 18.9333 9.25835 18.9333 10.0084C18.9333 10.75 18.5166 11.4584 17.7749 11.9584C17.0166 12.4584 16.0333 12.7334 15.0083 12.7334Z" fill="#5C646D"/>
<path d="M4.9749 6.59167C4.96657 6.59167 4.95824 6.59167 4.95824 6.59167C3.45824 6.54167 2.28324 5.325 2.2749 3.825C2.2749 2.29166 3.5249 1.04167 5.0499 1.04167C6.5749 1.04167 7.8249 2.29167 7.8249 3.81667C7.8249 5.325 6.6499 6.54167 5.1499 6.59167L4.9749 5.96667L5.0624 6.27917L5.1499 6.59167C5.26657 6.59167 4.99157 6.59167 4.9749 6.59167ZM5.05824 5.34167C5.10824 5.34167 5.1499 5.34167 5.1999 5.35C5.94157 5.31667 6.59157 4.65 6.59157 3.825C6.59157 2.98333 5.90824 2.3 5.06657 2.3C4.2249 2.3 3.54157 2.98333 3.54157 3.825C3.54157 4.64166 4.1749 5.3 4.98324 5.35C4.99157 5.34167 5.0249 5.34167 5.05824 5.34167Z" fill="#5C646D"/>
<path d="M4.9665 12.7334C3.9415 12.7334 2.95817 12.4584 2.19984 11.9584C1.4665 11.4667 1.0415 10.7584 1.0415 10.0084C1.0415 9.26669 1.4665 8.55835 2.19984 8.06669C3.19984 7.40002 4.60817 7.14169 5.9665 7.38336C6.30817 7.44169 6.53317 7.76669 6.47484 8.10835C6.4165 8.45002 6.09151 8.68335 5.74984 8.61669C4.71651 8.43335 3.62484 8.62502 2.89151 9.10835C2.49984 9.36669 2.2915 9.68335 2.2915 10.0084C2.2915 10.3334 2.50817 10.6584 2.89151 10.9167C3.61651 11.4 4.69984 11.5917 5.72484 11.4167C6.0665 11.3584 6.39151 11.5917 6.44984 11.925C6.50817 12.2667 6.28317 12.5917 5.9415 12.65C5.61651 12.7084 5.2915 12.7334 4.9665 12.7334Z" fill="#5C646D"/>
<path d="M9.99994 12.8167C9.97494 12.8167 9.95827 12.8167 9.93327 12.8167H9.8916C8.3166 12.7667 7.1416 11.55 7.1416 10.05C7.1416 8.51665 8.3916 7.27498 9.9166 7.27498C11.4416 7.27498 12.6916 8.52498 12.6916 10.05C12.6833 11.5583 11.5083 12.775 10.0083 12.825C10.0083 12.8167 10.0083 12.8167 9.99994 12.8167ZM9.9166 8.51665C9.07494 8.51665 8.3916 9.19999 8.3916 10.0417C8.3916 10.8667 9.03327 11.5333 9.85827 11.5667C9.8666 11.5583 9.93327 11.5583 10.0083 11.5667C10.8166 11.525 11.4416 10.8583 11.4499 10.0417C11.4499 9.20832 10.7666 8.51665 9.9166 8.51665Z" fill="#5C646D"/>
<path d="M9.99974 18.9666C8.99974 18.9666 7.99974 18.7083 7.22474 18.1833C6.49141 17.6917 6.06641 16.9917 6.06641 16.2417C6.06641 15.5 6.48307 14.7833 7.22474 14.2916C8.78307 13.2583 11.2247 13.2583 12.7747 14.2916C13.5081 14.7833 13.9331 15.4833 13.9331 16.2333C13.9331 16.975 13.5164 17.6917 12.7747 18.1833C11.9997 18.7 10.9997 18.9666 9.99974 18.9666ZM7.91641 15.3417C7.52474 15.6 7.31641 15.925 7.31641 16.25C7.31641 16.575 7.53307 16.8916 7.91641 17.15C9.04141 17.9083 10.9497 17.9083 12.0747 17.15C12.4664 16.8916 12.6747 16.5667 12.6747 16.2417C12.6747 15.9167 12.4581 15.6 12.0747 15.3417C10.9581 14.5833 9.04974 14.5917 7.91641 15.3417Z" fill="#5C646D"/>
</svg>
